HIERARCHY
ROOT SpineBase
{
  OFFSET 0.000000 0.000000 0.000000
  CHANNELS 6 Xposition Yposition Zposition Zrotation Xrotation Yrotation
  JOINT SpineMid
  {
    OFFSET 0.000000 29.944640 0.000000
    CHANNELS 3 Zrotation Xrotation Yrotation
    JOINT SpineShoulder
    {
      OFFSET -0.037757 22.315883 -0.699318
      CHANNELS 3 Zrotation Xrotation Yrotation
      JOINT Neck
      {
        OFFSET -0.025799 7.413530 -0.542276
        CHANNELS 3 Zrotation Xrotation Yrotation
        JOINT Head
        {
          OFFSET 3.293847 13.718364 -1.668537
          CHANNELS 3 Zrotation Xrotation Yrotation
          End Site
          {
            OFFSET 0 0 0
          }
        }
      }
      JOINT ShoulderLeft
      {
        OFFSET -15.155380 -2.034994 -6.419123
        CHANNELS 3 Zrotation Xrotation Yrotation
        JOINT ElbowLeft
        {
          OFFSET -6.496690 -23.176153 -2.518803
          CHANNELS 3 Zrotation Xrotation Yrotation
          JOINT WristLeft
          {
            OFFSET 0.125062 -19.181776 -6.430896
            CHANNELS 3 Zrotation Xrotation Yrotation
            JOINT HandLeft
            {
              OFFSET -0.958861 -6.788733 -1.572567
              CHANNELS 3 Zrotation Xrotation Yrotation
              JOINT HandTipLeft
              {
                OFFSET 1.703155 -6.258232 -0.158203
                CHANNELS 3 Zrotation Xrotation Yrotation
                End Site
                {
                  OFFSET 0 0 0
                }
              }
              JOINT ThumbLeft
              {
                OFFSET 2.766305 1.486266 -0.059776
                CHANNELS 3 Zrotation Xrotation Yrotation
                End Site
                {
                  OFFSET 0 0 0
                }
              }
            }
          }
        }
      }
      JOINT ShoulderRight
      {
        OFFSET 16.020918 -4.378614 3.889041
        CHANNELS 3 Zrotation Xrotation Yrotation
        JOINT ElbowRight
        {
          OFFSET 3.243719 -24.434260 3.315164
          CHANNELS 3 Zrotation Xrotation Yrotation
          JOINT WristRight
          {
            OFFSET 4.790168 -21.510497 -9.242290
            CHANNELS 3 Zrotation Xrotation Yrotation
            JOINT HandRight
            {
              OFFSET 0.706482 -3.553679 -0.814297
              CHANNELS 3 Zrotation Xrotation Yrotation
              JOINT HandTipRight
              {
                OFFSET 3.341169 -5.727799 -1.753514
                CHANNELS 3 Zrotation Xrotation Yrotation
                End Site
                {
                  OFFSET 0 0 0
                }
              }
              JOINT ThumbRight
              {
                OFFSET -1.630104 -0.474781 -1.996445
                CHANNELS 3 Zrotation Xrotation Yrotation
                End Site
                {
                  OFFSET 0 0 0
                }
              }
            }
          }
        }
      }
    }
  }
  JOINT HipLeft
  {
    OFFSET -7.233343 1.417966 -4.758521
    CHANNELS 3 Zrotation Xrotation Yrotation
    JOINT KneeLeft
    {
      OFFSET -5.408501 -27.891167 -0.277252
      CHANNELS 3 Zrotation Xrotation Yrotation
      JOINT AnkleLeft
      {
        OFFSET -4.270297 -34.895418 8.190101
        CHANNELS 3 Zrotation Xrotation Yrotation
        JOINT FootLeft
        {
          OFFSET -0.460322 -6.336476 -6.987684
          CHANNELS 3 Zrotation Xrotation Yrotation
          End Site
          {
            OFFSET 0 0 0
          }
        }
      }
    }
  }
  JOINT HipRight
  {
    OFFSET 6.758716 0.715396 -1.886145
    CHANNELS 3 Zrotation Xrotation Yrotation
    JOINT KneeRight
    {
      OFFSET -1.628078 -29.764224 2.292680
      CHANNELS 3 Zrotation Xrotation Yrotation
      JOINT AnkleRight
      {
        OFFSET -4.170856 -35.596290 5.635716
        CHANNELS 3 Zrotation Xrotation Yrotation
        JOINT FootRight
        {
          OFFSET 0.761896 -4.297510 -8.001552
          CHANNELS 3 Zrotation Xrotation Yrotation
          End Site
          {
            OFFSET 0 0 0
          }
        }
      }
    }
  }
}
MOTION
Frames: 13
Frame Time: 0.033333
23.107475 73.106143 332.465363 -0.000000 0.000000 -11.600857 0.000000 0.000000 11.600857 -0.000000 0.000000 0.000000 -0.000000 0.000000 0.000000 0.000000 0.000000 0.000000 -0.000000 0.000000 0.000000 -0.000000 0.000000 0.000000 -0.000000 0.000000 0.000000 -0.000000 0.000000 0.000000 0.000000 0.000000 0.000000 0.000000 0.000000 0.000000 -0.000000 0.000000 0.000000 -0.000000 0.000000 0.000000 -0.000000 0.000000 0.000000 -0.000000 0.000000 0.000000 0.000000 0.000000 0.000000 0.000000 0.000000 0.000000 0.000000 0.000000 11.600857 -0.000000 0.000000 0.000000 -0.000000 0.000000 0.000000 0.000000 0.000000 0.000000 0.000000 0.000000 11.600857 -0.000000 0.000000 0.000000 -0.000000 0.000000 0.000000 0.000000 0.000000 0.000000
23.133955 73.110256 332.507004 0.014888 0.023264 -11.500152 -0.009951 -0.025765 11.500146 -0.000000 0.000000 0.000000 -0.000000 0.000000 0.000000 0.000000 0.000000 0.000000 -0.000000 0.000000 0.000000 -0.000000 0.000000 0.000000 2.627832 0.691332 -0.723654 -4.881248 1.451936 1.364967 0.000000 0.000000 0.000000 0.000000 0.000000 0.000000 -0.000000 0.000000 0.000000 -0.000000 0.000000 0.000000 -1.308915 3.037691 0.935113 2.306854 -2.174290 -0.612103 0.000000 0.000000 0.000000 0.000000 0.000000 0.000000 -0.009951 -0.025765 11.500146 -0.000000 0.000000 0.000000 2.065398 7.578889 -2.767044 0.000000 0.000000 0.000000 -0.009951 -0.025765 11.500146 -0.000000 0.000000 0.000000 0.656070 2.547588 -0.752483 0.000000 0.000000 0.000000
23.155984 73.113471 332.540274 0.027935 0.045816 -11.430086 -0.018301 -0.050443 11.430067 -0.000000 0.000000 0.000000 -0.000000 0.000000 0.000000 0.000000 0.000000 0.000000 -0.000000 0.000000 0.000000 -0.000000 0.000000 0.000000 4.976817 1.322243 -1.402594 -9.165434 2.470569 2.526451 0.000000 0.000000 0.000000 0.000000 0.000000 0.000000 -0.000000 0.000000 0.000000 -0.000000 0.000000 0.000000 -2.373641 5.445735 1.728478 4.047588 -3.820519 -0.899133 0.000000 0.000000 0.000000 0.000000 0.000000 0.000000 -0.018301 -0.050443 11.430067 -0.000000 0.000000 0.000000 4.055903 13.676014 -5.271662 0.000000 0.000000 0.000000 -0.018301 -0.050443 11.430067 -0.000000 0.000000 0.000000 1.134977 3.975014 -1.357508 0.000000 0.000000 0.000000
23.173564 73.115787 332.565171 0.039146 0.067662 -11.390842 -0.025011 -0.074060 11.390803 -0.000000 0.000000 0.000000 -0.999286 0.021713 -0.126307 0.000000 0.000000 0.000000 -0.000000 0.000000 0.000000 -0.000000 0.000000 0.000000 7.011876 1.894749 -2.019559 -12.728268 3.052310 3.442168 0.000000 0.000000 0.000000 0.000000 0.000000 0.000000 -0.000000 0.000000 0.000000 -0.000000 0.000000 0.000000 -3.160478 7.211480 2.337888 5.234139 -4.896383 -0.948808 0.000000 0.000000 0.000000 0.000000 0.000000 0.000000 -0.025011 -0.074060 11.390803 -0.000000 0.000000 0.000000 5.784614 18.245340 -7.362354 0.000000 0.000000 0.000000 -0.025011 -0.074060 11.390803 -0.000000 0.000000 0.000000 1.423355 4.332435 -1.804458 0.000000 0.000000 0.000000
23.186692 73.117206 332.581697 0.048524 0.088806 -11.382541 -0.030043 -0.096636 11.382478 -0.000000 0.000000 0.000000 -1.262654 0.023627 -0.158577 0.000000 0.000000 0.000000 -0.000000 0.000000 0.000000 -0.000000 0.000000 0.000000 8.706428 2.412910 -2.559856 -15.475806 3.203398 4.086834 0.000000 0.000000 0.000000 0.000000 0.000000 0.000000 -0.000000 0.000000 0.000000 0.581555 0.790592 -0.077511 -4.239571 7.562465 2.759488 5.893303 -5.405860 -0.830277 0.000000 0.000000 0.000000 0.000000 0.000000 0.000000 -0.030043 -0.096636 11.382478 -0.000000 0.000000 0.000000 7.112202 21.395178 -8.929403 0.000000 0.000000 0.000000 -0.030043 -0.096636 11.382478 -0.000000 0.000000 0.000000 1.513553 3.646058 -2.090767 0.000000 0.000000 0.000000
23.195371 73.117727 332.589850 0.056074 0.109253 -11.405244 -0.033363 -0.118184 11.405156 -0.000000 0.000000 0.000000 -1.489726 0.022710 -0.185785 0.000000 0.000000 0.000000 -0.000000 0.000000 0.000000 -0.000000 0.000000 0.000000 10.041446 2.881753 -3.011480 -17.344319 2.933118 4.452472 0.000000 0.000000 0.000000 0.000000 0.000000 0.000000 -0.000000 0.000000 0.000000 0.672818 0.949457 -0.082821 -4.538238 7.970718 2.939459 6.063358 -5.383697 -0.589607 0.000000 0.000000 0.000000 0.000000 0.000000 0.000000 -0.033363 -0.118184 11.405156 -0.000000 0.000000 0.000000 7.948516 23.267165 -9.903683 0.000000 0.000000 0.000000 -0.033363 -0.118184 11.405156 -0.000000 0.000000 0.000000 1.402291 1.914921 -2.220766 0.000000 0.000000 0.000000
23.194790 73.117571 332.583788 0.056074 0.130876 -11.447015 -0.028985 -0.139401 11.446915 -0.000000 0.000000 0.000000 -1.656894 0.019839 -0.205307 0.000000 0.000000 0.000000 -0.000000 0.000000 0.000000 0.465725 0.670497 -0.154187 10.684561 3.045837 -3.218317 -17.733836 1.034957 4.252681 0.000000 0.000000 0.000000 0.000000 0.000000 0.000000 -0.000000 0.000000 0.000000 0.711041 1.094309 -0.068230 -4.171470 7.402718 2.701720 6.640009 -4.553119 -0.433114 0.000000 0.000000 0.000000 0.000000 0.000000 0.000000 -0.028985 -0.139401 11.446915 0.542640 0.601371 0.051012 5.852585 20.182389 -8.125745 0.000000 0.000000 0.000000 -0.028985 -0.139401 11.446915 -0.000000 0.000000 0.000000 1.983171 2.651353 -3.123622 0.000000 0.000000 0.000000
23.183221 73.112948 332.568426 0.045628 0.158142 -11.566851 -0.012992 -0.164079 11.566770 -0.000000 0.000000 0.000000 -1.793610 -0.011129 -0.214863 0.000000 0.000000 0.000000 -0.000000 0.000000 0.000000 0.585914 0.944224 -0.194563 11.012133 3.271357 -3.361295 -17.522196 -0.007303 4.128433 0.000000 0.000000 0.000000 0.000000 0.000000 0.000000 -0.000000 0.000000 0.000000 0.727049 1.282277 -0.034749 -3.555178 7.035799 2.437455 3.608932 -3.417462 0.633855 0.000000 0.000000 0.000000 0.000000 0.000000 0.000000 -0.012992 -0.164079 11.566770 0.612374 0.625722 0.063935 3.562616 15.022459 -5.519186 0.000000 0.000000 0.000000 -0.012992 -0.164079 11.566770 -0.000000 0.000000 0.000000 0.389631 -6.758839 -2.135371 0.000000 0.000000 0.000000
23.184655 73.111947 332.555700 0.044608 0.183767 -11.692165 -0.006442 -0.188994 11.692082 -0.000000 0.000000 0.000000 -1.858505 -0.039912 -0.216279 0.000000 0.000000 0.000000 -0.000000 0.000000 0.000000 0.697386 1.244749 -0.232413 11.009389 3.653546 -3.458095 -16.173905 -1.398367 3.898969 0.000000 0.000000 0.000000 0.000000 0.000000 0.000000 -0.000000 0.000000 0.000000 0.768761 1.387117 -0.030504 -4.294034 6.167619 2.450111 3.803550 -2.279347 0.977373 0.000000 0.000000 0.000000 0.000000 0.000000 0.000000 -0.006442 -0.188994 11.692082 0.595496 0.593850 0.064127 3.607370 15.044138 -5.550075 0.000000 0.000000 0.000000 -0.006442 -0.188994 11.692082 -0.868561 0.061790 -0.144172 1.426092 -7.267340 -2.398546 0.000000 0.000000 0.000000
23.200590 73.110238 332.554107 0.066233 0.191085 -11.797697 -0.025765 -0.200591 11.797541 -0.000000 0.000000 0.000000 -1.946018 -0.031851 -0.228666 0.000000 0.000000 0.000000 -0.000000 0.000000 0.000000 0.788574 1.429897 -0.263784 10.799618 2.717800 -3.183223 -15.979282 -1.205190 3.727988 0.000000 0.000000 0.000000 0.000000 0.000000 0.000000 -0.000000 0.000000 0.000000 0.850896 1.416761 -0.060193 -3.195663 5.458145 2.008783 2.035433 -1.808230 1.269001 0.000000 0.000000 0.000000 0.000000 0.000000 0.000000 -0.025765 -0.200591 11.797541 -0.000000 0.000000 0.000000 5.095145 17.486179 -6.583185 0.000000 0.000000 0.000000 -0.025765 -0.200591 11.797541 -0.845116 0.078588 -0.142325 0.875258 -10.168500 -2.010093 0.000000 0.000000 0.000000
23.205080 73.106824 332.541697 0.096910 0.181915 -11.923182 -0.057236 -0.198012 11.922929 -0.000000 0.000000 0.000000 -2.048909 -0.002453 -0.247622 0.000000 0.000000 0.000000 -0.000000 0.000000 0.000000 0.868209 1.550257 -0.291384 10.037342 2.304616 -2.896865 -16.156441 -0.341560 3.768233 0.000000 0.000000 0.000000 0.000000 0.000000 0.000000 -0.000000 0.000000 0.000000 0.927913 1.310750 -0.116627 -3.085099 3.700815 1.622129 2.288876 0.381012 1.715115 0.000000 0.000000 0.000000 0.000000 0.000000 0.000000 -0.057236 -0.198012 11.922929 -0.000000 0.000000 0.000000 8.439467 24.258247 -10.468798 0.000000 0.000000 0.000000 -0.057236 -0.198012 11.922929 -0.838266 0.046536 -0.137722 0.172880 -14.194354 -1.556205 0.000000 0.000000 0.000000
23.186883 73.100565 332.501925 0.118359 0.178920 -12.064748 -0.078348 -0.199707 12.064427 -0.000000 0.000000 0.000000 -2.189448 0.000924 -0.265317 0.000000 0.000000 0.000000 -0.000000 0.000000 0.000000 0.953479 1.511202 -0.320956 9.666288 2.173389 -2.766548 -17.978457 -0.743539 3.522374 0.000000 0.000000 0.000000 0.000000 0.000000 0.000000 -0.782812 0.330607 -0.060141 1.831580 0.771658 -0.144112 -1.976893 3.460460 1.323688 1.113825 0.640735 1.883361 0.000000 0.000000 0.000000 0.000000 0.000000 0.000000 -0.078348 -0.199707 12.064427 -0.000000 0.000000 0.000000 9.426793 25.147605 -11.560222 0.000000 0.000000 0.000000 -0.078348 -0.199707 12.064427 -0.000000 0.000000 0.000000 -0.109389 -10.155491 -1.930837 0.000000 0.000000 0.000000
23.145408 73.108057 332.429228 0.138809 0.155152 -12.259461 -0.102699 -0.181088 12.259110 -0.000000 0.000000 0.000000 -2.381978 0.138936 -0.318683 0.000000 0.000000 0.000000 -0.000000 0.000000 0.000000 1.045520 1.288936 -0.352537 9.013005 1.894763 -2.522317 -18.075551 0.796438 3.803574 0.000000 0.000000 0.000000 0.000000 0.000000 0.000000 -0.845344 0.752713 -0.009234 1.972212 0.058227 -0.275070 0.752286 5.215360 0.972910 -1.803719 0.731001 2.985379 0.000000 0.000000 0.000000 0.000000 0.000000 0.000000 -0.102699 -0.181088 12.259110 -0.000000 0.000000 0.000000 13.286352 30.953998 -15.873102 0.000000 0.000000 0.000000 -0.258419 0.632161 12.216000 -0.019884 -0.827784 0.043580 1.149013 -2.066878 -2.566388 0.000000 0.000000 0.000000
